<svg id="Capa_1" enable-background="new 0 0 512 512" height="512" viewBox="0 0 512 512" width="512" xmlns="http://www.w3.org/2000/svg"><g><g><path d="m437.02 74.98c-48.352-48.351-112.64-74.98-181.02-74.98l-10.001 253.43 10.001 258.57c68.38 0 132.668-26.629 181.02-74.98 48.351-48.353 74.98-112.64 74.98-181.02s-26.629-132.667-74.98-181.02z" fill="#0dc46e"/><path d="m74.98 74.98c-48.351 48.353-74.98 112.64-74.98 181.02 0 48.584 13.577 95.581 39.336 136.403l-39.13 119.39 119.39-39.129c40.823 25.759 87.819 39.336 136.404 39.336v-512c-68.38 0-132.668 26.629-181.02 74.98z" fill="#04db7b"/></g><g><path d="m329.459 273.555-26.667 26.667-46.792-46.793-10.001 45.629 10.001 65.337c14.306 12.2 27.364 21.893 39.673 29.587 21.138 13.211 48.596 10.084 66.222-7.542l40.224-40.224z" fill="#f7f0eb"/><path d="m211.778 209.208 26.667-26.667-72.661-72.661-40.224 40.224c-17.626 17.625-20.753 45.084-7.542 66.222 14.085 22.537 34.853 47.571 65.489 78.207l33.959 33.959c13.902 13.903 26.648 25.767 38.534 35.903v-110.966z" fill="#fffbf5"/></g></g></svg>