<?xml version="1.0"?>
<svg xmlns="http://www.w3.org/2000/svg" xmlns:xlink="http://www.w3.org/1999/xlink" xmlns:svgjs="http://svgjs.com/svgjs" version="1.1" width="512" height="512" x="0" y="0" viewBox="0 0 511.6 511.6" style="enable-background:new 0 0 512 512" xml:space="preserve" class=""><g>
<rect xmlns="http://www.w3.org/2000/svg" x="77.47" y="378.16" style="" width="359.52" height="73.27" fill="#f2f7fb" data-original="#f5f7fa" class=""/>
<path xmlns="http://www.w3.org/2000/svg" style="" d="M191.85,437.002h-85.277c-5.886,0-10.647-4.777-10.647-10.663c0-5.887,4.762-10.664,10.647-10.664  h85.277c5.886,0,10.647,4.777,10.647,10.664C202.497,432.225,197.736,437.002,191.85,437.002z" fill="#ccd1d9" data-original="#ccd1d9" class=""/>
<path xmlns="http://www.w3.org/2000/svg" style="" d="M106.572,405.028h330.414c5.886,0,10.664-4.778,10.664-10.664v-383.7  c0-5.886-4.778-10.663-10.664-10.663H106.572c-23.544,0-42.623,19.094-42.623,42.639c0,0,0,0,0,0.016v351.709  c0,0.078,0,0.141,0,0.219l0,0v31.757c0,23.544,19.079,42.638,42.623,42.638h330.414l0,0c5.886,0,10.664-4.777,10.664-10.663  s-4.778-10.663-10.664-10.663h-0.016H106.572c-11.741,0-21.312-9.556-21.312-21.312C85.261,414.582,94.831,405.028,106.572,405.028z  " fill="#263544" data-original="#434a54" class=""/>
<path xmlns="http://www.w3.org/2000/svg" style="" d="M106.572,405.028H127.9V0h-21.327C83.03,0,63.951,19.094,63.951,42.639c0,0,0,0,0,0.016v351.709  c0,0.078,0,0.141,0,0.219l0,0v31.757c0,23.544,19.079,42.638,42.623,42.638H127.9v-21.326h-21.327  c-11.741,0-21.312-9.556-21.312-21.312C85.261,414.582,94.831,405.028,106.572,405.028z" fill="#656d78" data-original="#656d78" class=""/>
<polygon xmlns="http://www.w3.org/2000/svg" style="" points="191.85,511.6 149.211,490.288 106.572,511.6 106.572,426.339 191.85,426.339 " fill="#4099ff" data-original="#ed5564" class=""/>
<polygon xmlns="http://www.w3.org/2000/svg" style="" points="277.112,120.421 303.465,173.802 362.373,182.373 319.75,223.919 329.805,282.608   277.112,254.895 224.418,282.608 234.473,223.919 191.85,182.373 250.757,173.802 " fill="#4099ff" data-original="#ffce54" class=""/>
<g xmlns="http://www.w3.org/2000/svg">
	<path style="" d="M436.987,426.339c-5.887,0-10.664,4.777-10.664,10.663s4.777,10.648,10.664,10.648V426.339z" fill="#ccd1d9" data-original="#ccd1d9" class=""/>
	<path style="" d="M436.987,405.028L436.987,405.028c-5.887,0-10.664,4.762-10.664,10.647s4.777,10.664,10.664,10.664   l0,0V405.028z" fill="#ccd1d9" data-original="#ccd1d9" class=""/>
</g>
<g xmlns="http://www.w3.org/2000/svg">
</g>
<g xmlns="http://www.w3.org/2000/svg">
</g>
<g xmlns="http://www.w3.org/2000/svg">
</g>
<g xmlns="http://www.w3.org/2000/svg">
</g>
<g xmlns="http://www.w3.org/2000/svg">
</g>
<g xmlns="http://www.w3.org/2000/svg">
</g>
<g xmlns="http://www.w3.org/2000/svg">
</g>
<g xmlns="http://www.w3.org/2000/svg">
</g>
<g xmlns="http://www.w3.org/2000/svg">
</g>
<g xmlns="http://www.w3.org/2000/svg">
</g>
<g xmlns="http://www.w3.org/2000/svg">
</g>
<g xmlns="http://www.w3.org/2000/svg">
</g>
<g xmlns="http://www.w3.org/2000/svg">
</g>
<g xmlns="http://www.w3.org/2000/svg">
</g>
<g xmlns="http://www.w3.org/2000/svg">
</g>
</g></svg>
